<?xml version="1.0" encoding="utf-8"?>
<!-- Generator: Adobe Illustrator 16.0.0, SVG Export Plug-In . SVG Version: 6.00 Build 0)  -->
<!DOCTYPE svg PUBLIC "-//W3C//DTD SVG 1.1//EN" "http://www.w3.org/Graphics/SVG/1.1/DTD/svg11.dtd">
<svg version="1.1" id="android" xmlns="http://www.w3.org/2000/svg" xmlns:xlink="http://www.w3.org/1999/xlink" x="0px" y="0px"
	 width="272px" height="183px" viewBox="0 0 272 183" enable-background="new 0 0 272 183" xml:space="preserve">
<g>
	<g>
		<path d="M85.788,157.855v-19.173H75.026c-5.725,0-10.364,4.288-10.364,9.592c0,5.293,4.64,9.583,10.364,9.583h3.301v-4.167h-3.282
			c-3.33,0-6.042-2.349-6.042-5.416c0-3.078,2.647-5.421,5.975-5.421h6.673v15.008h4.137L85.788,157.855L85.788,157.855z"/>
		<path d="M99.496,137.961c-5.497,0-9.951,3.779-9.951,9.514v10.379h4.046v-10.609c0-3.697,3.155-5.827,5.905-5.827
			c2.751,0,5.848,2.128,5.848,5.827v10.609h4.104v-10.379C109.45,141.74,104.99,137.961,99.496,137.961z"/>
		<path d="M131.869,148.151c0-5.531-3.653-9.471-9.147-9.471h-9.126v4.171h9.349c3.538,0,5,2.478,5,5.244
			c0,2.761-1.516,5.593-5.06,5.593h-9.344v4.129h9.123C128.157,157.816,131.869,153.675,131.869,148.151z"/>
		<path d="M207.339,148.151c0-5.531-3.654-9.471-9.152-9.471h-9.119v4.171h9.343c3.535,0,5.004,2.478,5.004,5.244
			c0,2.761-1.517,5.593-5.058,5.593h-9.346v4.129h9.123C203.633,157.816,207.339,153.675,207.339,148.151z"/>
		<path d="M150.793,151.383c1.757-0.962,2.637-2.729,2.637-5.748c0-5.317-2.822-6.952-8.322-6.952h-9.122v4.171h9.343
			c3.542,0,4.175,1.128,4.175,2.728c0,1.603-0.511,2.971-4.053,2.971l-9.343-0.001l-0.006,3.831h9.121c0.088,0,0.177,0,0.257,0
			c1.814,0.192,3.226,1.734,3.226,3.604c0,0.601,0.106,1.162-0.148,1.667c0,0.065,0.249,0.139,0.249,0.205h3.771
			C152.577,157.855,153.258,153.774,150.793,151.383z"/>
		<path d="M157.207,147.997c0,5.453,4.239,9.875,9.467,9.875c5.229,0,9.471-4.422,9.471-9.875s-4.239-9.871-9.471-9.871
			C161.446,138.121,157.207,142.542,157.207,147.997z M161.008,147.997c0-3.264,2.536-5.91,5.665-5.91s5.667,2.646,5.667,5.91
			c0,3.263-2.536,5.91-5.667,5.91C163.547,153.907,161.008,151.26,161.008,147.997z"/>
		<rect x="180.759" y="138.683" width="4.15" height="19.171"/>
	</g>
	<g>
		<path fill="#ABC051" d="M172.25,55.926c-3.301,0-5.98,2.716-5.98,6.069v23.733c0,3.356,2.685,6.072,5.98,6.072
			c3.303,0,5.979-2.716,5.979-6.072V61.995C178.234,58.644,175.556,55.926,172.25,55.926z M100.131,55.926
			c-3.304,0-5.979,2.716-5.979,6.069v23.733c0,3.356,2.677,6.072,5.979,6.072c3.3,0,5.979-2.716,5.979-6.072V61.995
			C106.113,58.644,103.431,55.926,100.131,55.926z"/>
		<path fill="#ABC051" d="M109.706,56.107v43.357c0,2.575,2.089,4.664,4.664,4.664h5.327v13.203c0,3.354,2.68,6.071,5.976,6.071
			c3.303,0,5.979-2.717,5.979-6.071v-13.203h9.306v13.203c0,3.352,2.674,6.07,5.98,6.07c3.302,0,5.979-2.719,5.979-6.07v-13.203
			h5.32c2.578,0,4.666-2.087,4.666-4.665V56.107H109.706z"/>
		<path fill="#ABC051" d="M148.804,33.643l4.911-7.134c0.291-0.423,0.22-0.983-0.158-1.243c-0.385-0.265-0.927-0.132-1.218,0.29
			l-5.104,7.411c-3.362-1.324-7.104-2.064-11.043-2.064c-3.934,0-7.672,0.741-11.035,2.065l-5.105-7.412
			c-0.295-0.421-0.838-0.554-1.218-0.29c-0.383,0.265-0.456,0.82-0.164,1.243l4.913,7.134c-7.814,3.635-13.294,10.542-13.993,18.604
			h53.201C162.093,44.184,156.615,37.276,148.804,33.643z M124.972,44.886c-1.629,0-2.944-1.314-2.944-2.943
			c0-1.63,1.319-2.943,2.944-2.943c1.624,0,2.941,1.316,2.941,2.943C127.912,43.571,126.594,44.886,124.972,44.886z M147.782,44.886
			c-1.629,0-2.945-1.314-2.945-2.943c0-1.63,1.319-2.943,2.945-2.943c1.632,0,2.942,1.316,2.942,2.943
			C150.725,43.571,149.41,44.886,147.782,44.886z"/>
	</g>
</g>
</svg>
