<?xml version="1.0" encoding="utf-8"?>
<!-- Generator: Adobe Illustrator 16.0.0, SVG Export Plug-In . SVG Version: 6.00 Build 0)  -->
<!DOCTYPE svg PUBLIC "-//W3C//DTD SVG 1.1//EN" "http://www.w3.org/Graphics/SVG/1.1/DTD/svg11.dtd">
<svg version="1.1" id="mysql" xmlns="http://www.w3.org/2000/svg" xmlns:xlink="http://www.w3.org/1999/xlink" x="0px" y="0px"
	 width="272px" height="183px" viewBox="19.527 -47.5 272 183" enable-background="new 19.527 -47.5 272 183" xml:space="preserve">
<g>
	<path fill="#439BD6" d="M108.626,94.437h-6.968c-0.248-11.766-0.927-22.832-2.038-33.198h-0.059L88.947,94.437h-5.309
		L73.085,61.238h-0.061c-0.783,9.955-1.275,21.019-1.477,33.198h-6.357c0.412-14.809,1.436-28.693,3.083-41.65h8.638L86.97,83.388
		h0.063L97.15,52.786h8.273C107.231,67.958,108.298,81.846,108.626,94.437"/>
	<path fill="#439BD6" d="M138.861,63.705c-2.838,15.401-6.584,26.597-11.231,33.579c-3.619,5.38-7.587,8.071-11.912,8.071
		c-1.149,0-2.569-0.348-4.253-1.038v-3.71c0.822,0.12,1.789,0.182,2.898,0.182c2.016,0,3.639-0.554,4.875-1.666
		c1.48-1.355,2.219-2.877,2.219-4.565c0-1.152-0.574-3.513-1.726-7.092l-7.649-23.758h6.848l5.488,17.768
		c1.234,4.031,1.748,6.851,1.545,8.457c3-8.02,5.102-16.761,6.294-26.225L138.861,63.705L138.861,63.705z"/>
	<polygon fill="#FA8A3B" points="231.662,94.437 211.855,94.437 211.855,52.785 218.519,52.785 218.519,89.313 231.662,89.313 	"/>
	<path fill="#FA8A3B" d="M206.672,95.442l-7.652-3.779c0.678-0.562,1.33-1.162,1.916-1.86c3.25-3.818,4.879-9.479,4.879-16.967
		c0-13.777-5.412-20.673-16.227-20.673c-5.311,0-9.445,1.752-12.404,5.245c-3.248,3.828-4.875,9.461-4.875,16.909
		c0,7.321,1.436,12.692,4.316,16.104c2.635,3.081,6.604,4.628,11.91,4.628c1.984,0,3.801-0.245,5.455-0.732l9.969,5.801
		L206.672,95.442z M181.869,86.101c-1.688-2.713-2.533-7.068-2.533-13.076c0-10.49,3.189-15.738,9.564-15.738
		c3.336,0,5.779,1.255,7.346,3.765c1.684,2.717,2.527,7.033,2.527,12.958c0,10.572-3.188,15.859-9.563,15.859
		C185.881,89.866,183.429,88.617,181.869,86.101"/>
	<path fill="#FA8A3B" d="M169.402,82.889c0,3.533-1.301,6.434-3.887,8.7c-2.586,2.259-6.064,3.392-10.425,3.392
		c-4.071,0-8.024-1.304-11.845-3.887l1.787-3.577c3.292,1.644,6.273,2.469,8.945,2.469c2.508,0,4.473-0.561,5.893-1.664
		c1.418-1.109,2.266-2.661,2.266-4.627c0-2.474-1.721-4.588-4.887-6.361c-2.924-1.604-8.761-4.949-8.761-4.949
		c-3.166-2.308-4.751-4.783-4.751-8.865c0-3.372,1.184-6.1,3.544-8.176c2.372-2.077,5.424-3.118,9.167-3.118
		c3.867,0,7.379,1.033,10.549,3.09l-1.611,3.574c-2.711-1.147-5.381-1.726-8.016-1.726c-2.139,0-3.785,0.515-4.932,1.549
		c-1.156,1.021-1.869,2.339-1.869,3.945c0,2.466,1.761,4.606,5.016,6.414c2.959,1.607,8.942,5.014,8.942,5.014
		C167.779,76.389,169.402,78.843,169.402,82.889"/>
	<path fill="#439BD6" d="M240.025,38.833c-4.027-0.104-7.145,0.3-9.762,1.406c-0.754,0.302-1.963,0.302-2.066,1.258
		c0.406,0.402,0.455,1.056,0.809,1.611c0.6,1.007,1.656,2.361,2.613,3.07c1.057,0.8,2.117,1.606,3.227,2.309
		c1.959,1.215,4.174,1.917,6.082,3.124c1.113,0.703,2.217,1.611,3.328,2.366c0.549,0.403,0.9,1.059,1.609,1.307v-0.151
		c-0.355-0.453-0.453-1.105-0.803-1.614c-0.504-0.497-1.008-0.953-1.512-1.456c-1.459-1.965-3.273-3.672-5.232-5.084
		c-1.611-1.106-5.135-2.617-5.787-4.474c0,0-0.051-0.054-0.102-0.104c1.105-0.102,2.418-0.505,3.473-0.811
		c1.711-0.452,3.273-0.35,5.031-0.801c0.805-0.201,1.615-0.457,2.42-0.704v-0.455c-0.912-0.902-1.561-2.114-2.518-2.97
		c-2.563-2.213-5.387-4.374-8.305-6.188c-1.563-1.006-3.578-1.66-5.238-2.519c-0.602-0.303-1.607-0.451-1.957-0.958
		c-0.908-1.104-1.412-2.563-2.068-3.875c-1.455-2.763-2.867-5.834-4.123-8.757c-0.906-1.963-1.459-3.922-2.568-5.735
		c-5.188-8.557-10.82-13.738-19.473-18.819c-1.869-1.062-4.08-1.513-6.441-2.068c-1.26-0.053-2.521-0.15-3.775-0.199
		c-0.807-0.353-1.613-1.312-2.314-1.767c-2.869-1.809-10.266-5.733-12.381-0.554c-1.357,3.274,2.01,6.496,3.174,8.155
		c0.854,1.159,1.963,2.466,2.561,3.776c0.354,0.855,0.455,1.762,0.809,2.666c0.805,2.215,1.557,4.683,2.615,6.744
		c0.553,1.059,1.156,2.167,1.861,3.118c0.408,0.559,1.105,0.805,1.262,1.713c-0.703,1.004-0.758,2.517-1.16,3.773
		c-1.811,5.688-1.105,12.733,1.461,16.91c0.805,1.255,2.717,4.026,5.287,2.967c2.264-0.903,1.758-3.772,2.416-6.286
		c0.148-0.608,0.047-1.009,0.35-1.407v0.103c0.705,1.406,1.408,2.759,2.068,4.176c1.557,2.462,4.271,5.03,6.541,6.738
		c1.203,0.912,2.164,2.467,3.67,3.023v-0.154h-0.098c-0.305-0.451-0.754-0.652-1.16-1.003c-0.902-0.906-1.908-2.014-2.617-3.018
		c-2.109-2.822-3.975-5.942-5.635-9.163c-0.809-1.563-1.508-3.273-2.168-4.832c-0.299-0.6-0.299-1.511-0.803-1.81
		c-0.756,1.104-1.861,2.064-2.412,3.418c-0.957,2.166-1.055,4.834-1.412,7.604c-0.203,0.052-0.102,0-0.203,0.099
		c-1.609-0.4-2.158-2.063-2.77-3.467c-1.508-3.576-1.762-9.313-0.449-13.441c0.35-1.055,1.865-4.374,1.262-5.381
		c-0.307-0.962-1.314-1.509-1.867-2.269c-0.652-0.954-1.359-2.163-1.811-3.219c-1.207-2.821-1.814-5.939-3.121-8.758
		c-0.604-1.312-1.662-2.672-2.514-3.878c-0.959-1.357-2.014-2.311-2.771-3.924c-0.25-0.554-0.602-1.459-0.201-2.061
		c0.1-0.407,0.303-0.559,0.705-0.659c0.65-0.554,2.518,0.15,3.17,0.455c1.867,0.75,3.424,1.459,4.98,2.515
		c0.703,0.505,1.461,1.463,2.365,1.714h1.061c1.609,0.347,3.422,0.098,4.93,0.554c2.668,0.854,5.086,2.113,7.248,3.47
		c6.588,4.18,12.025,10.121,15.699,17.213c0.602,1.155,0.855,2.215,1.412,3.42c1.057,2.471,2.367,4.988,3.42,7.403
		c1.057,2.364,2.068,4.776,3.574,6.743c0.756,1.056,3.773,1.61,5.135,2.162c1.004,0.452,2.563,0.854,3.471,1.407
		c1.713,1.056,3.422,2.267,5.035,3.423C237.355,36.565,239.873,37.825,240.025,38.833"/>
	<path fill="#439BD6" d="M188.693-4.902c-0.85,0-1.457,0.101-2.063,0.252v0.103h0.096c0.406,0.801,1.113,1.359,1.613,2.065
		c0.406,0.804,0.754,1.609,1.156,2.411c0.053-0.047,0.1-0.1,0.1-0.1c0.711-0.503,1.063-1.31,1.063-2.519
		c-0.307-0.352-0.354-0.703-0.604-1.058C189.752-4.248,189.097-4.5,188.693-4.902"/>
	<path fill="#FA8A3B" d="M244.82,94.432h1.041v-5.105h-1.563l-1.275,3.482l-1.389-3.482h-1.508v5.105h0.986v-3.881h0.057
		l1.449,3.881h0.754l1.447-3.881V94.432L244.82,94.432z M236.42,94.432h1.102v-4.238h1.443v-0.867h-4.049v0.867h1.504V94.432z"/>
</g>
</svg>
